<svg width="49" height="49" viewBox="0 0 49 49" fill="none" xmlns="http://www.w3.org/2000/svg">
<g clip-path="url(#clip0_3248_3898)">
<path d="M11.64 20.1343C11.3356 19.8454 11.0934 19.4929 10.9303 19.104C10.7067 19.0341 10.4738 18.9992 10.2409 18.9992C9.92253 19.0294 9.7952 19.058 9.54208 19.1675C9.55606 19.3501 9.63836 19.6056 9.81694 20.0343C9.26878 19.9994 8.71597 19.0881 8.66162 18.8135C8.96598 18.6579 9.28742 18.5452 9.62128 18.4769C10.5716 18.2848 11.362 18.5182 11.7611 18.6706C11.567 19.131 11.5251 19.6453 11.64 20.1343Z" fill="white"/>
<path d="M13.46 18.7151C13.4305 18.5833 13.3995 18.45 13.37 18.3182C13.1262 18.7103 12.8389 19.0199 12.1665 19.3183C13.8855 19.3739 14.4849 18.7675 14.8452 18.0356C14.3715 18.3389 14.0377 18.5182 13.46 18.7151Z" fill="white"/>
<path d="M18.5942 18.634C17.8287 18.6785 16.6485 18.2975 16.3628 18.5404C16.7991 16.7957 19.5508 18.0022 20.1315 16.3147C19.9623 17.1402 20.1315 17.5403 18.7138 18.1784C18.7138 18.1784 19.0974 18.4372 19.234 18.4356L18.5942 18.634Z" fill="white"/>
<path d="M10.1245 16.8514C10.4848 17.1404 11.3124 16.9276 11.4429 16.8435C11.1509 17.4102 10.4289 17.6055 10.1245 16.8514Z" fill="white"/>
<path d="M16.9961 15.5243C16.9759 15.3433 16.8315 15.202 16.6529 15.1925C16.4821 15.3496 16.2492 15.5243 16.0737 15.3814C16.1389 15.1687 16.6995 14.8258 17.1172 14.594C17.1747 14.7258 17.1995 14.8686 17.1918 15.0115C17.1778 15.1988 17.111 15.3782 16.9961 15.5243Z" fill="white"/>
<path d="M26.2607 8.95508C23.8833 9.06303 22.127 10.1076 21.0742 12.2095C21.5121 11.792 21.9671 11.4173 22.4733 11.1712C22.1348 11.6602 21.8273 12.3238 21.7466 12.8969C21.8662 13.4588 22.3507 13.9144 22.4609 13.9906C22.7684 12.0761 23.5712 10.5267 26.2607 8.95508Z" fill="white"/>
<path d="M19.0809 9.82506C18.4225 10.2362 17.7454 10.8157 17.0591 11.9952C17.8184 9.36786 20.0685 6.68339 23.4521 5.92773C21.1384 7.33903 20.0856 9.44406 20.2238 10.8744C20.0126 11.2205 19.1259 11.6412 18.4675 11.9682C18.5778 11.1062 18.8045 10.3807 19.0809 9.82506Z" fill="white"/>
<path d="M8.89999 27.2559C8.12201 26.3494 7.65616 23.9269 8.07698 21.9917C8.20587 23.1141 8.52575 24.338 9.68728 25.3858C11.206 25.1699 11.4063 25.5255 11.3519 25.5255C9.92331 26.1145 9.69194 26.578 8.89999 27.2559Z" fill="white"/>
<path d="M12.7292 47.1252C14.9311 44.2915 16.2541 40.8498 16.5306 37.2414C16.5306 37.2414 14.4218 38.84 12.6655 40.2973C13.8115 38.2764 15.0243 35.6538 15.7961 32.5376C16.4048 30.0769 16.5958 27.8862 16.5973 26.0685C16.897 26.613 17.2883 27.3671 17.689 28.2846C18.0477 29.1038 18.8148 30.8612 19.1549 32.6693C19.7108 35.6189 19.012 38.0954 18.7449 39.0146C17.3613 43.7692 13.8752 46.3473 12.7292 47.1252Z" fill="white"/>
<path d="M21.889 27.5862L20.2119 27.5799C20.2647 26.5369 20.4914 25.5113 20.8812 24.5461C21.7492 25.2859 22.1374 26.4591 21.889 27.5862Z" fill="white"/>
<path d="M25.9277 31.2373C26.0194 30.7229 26.1187 29.0497 26.1125 28.8258L26.5333 27.4415C26.6265 28.756 26.406 30.0165 25.9277 31.2373Z" fill="white"/>
<path d="M22.771 31.793L20.625 31.1294C20.7492 30.4055 20.771 29.8626 20.7523 29.2212L21.1732 29.7498L22.3067 28.2258C22.9605 29.291 23.1282 30.5928 22.771 31.793Z" fill="white"/>
<path d="M24.0014 36.5078C22.8554 36.4094 21.7451 36.0585 20.7451 35.4791C20.9423 34.9505 21.0107 34.506 21.02 33.9218C21.02 33.9218 21.7296 34.4456 21.8896 34.4075C21.9889 34.2234 22.1039 34.0313 22.2343 33.8376C22.6365 33.2407 23.1241 32.7121 23.6831 32.266C24.1676 33.6233 24.2794 35.0902 24.0014 36.5078Z" fill="white"/>
<path d="M44.0861 28.4785C43.9417 28.3769 43.6544 26.764 43.6544 26.764C43.5271 27.9578 43.2305 29.1262 42.7724 30.2311C41.4634 33.3776 39.1838 35.1476 38.0518 35.9049C37.5766 33.5824 37.766 31.1678 38.5968 28.9532C38.5627 29.7327 38.8266 30.4962 39.3329 31.0804C41.0891 27.5149 42.0628 23.6001 42.1854 19.6107C42.7367 20.1711 43.7367 21.3411 44.2647 23.1397C45.0007 25.6417 44.347 27.753 44.0861 28.4785Z" fill="white"/>
<path d="M33.8064 8.81511C33.4321 10.1613 33.5874 10.7011 33.4911 11.3678C33.4911 11.3678 32.9383 10.9328 32.7085 9.20723L33.0657 9.76762C33.2613 8.60874 33.0206 7.84197 33.3809 7.3689C36.0657 8.00072 38.5534 11.2821 36.0844 18.6037C36.0378 17.5575 37.7211 10.9471 33.8064 8.81511Z" fill="white"/>
<path d="M32.8862 3.97509C31.5694 5.25144 31.4358 6.16267 31.0756 7.8613C30.765 6.67385 30.7604 5.45306 31.1983 3.77983C32.4359 3.5163 32.7791 3.83221 32.8862 3.97509Z" fill="white"/>
<path d="M23.3376 23.7602C19.1806 24.7349 18.5968 21.7679 17.6713 22.4346C17.2458 22.7362 18.1247 23.2903 18.1247 23.2903C17.988 23.4681 15.5082 23.803 15.6277 22.1536C15.7628 21.4535 16.3405 21.0932 17.2877 21.017C19.9167 21.0979 19.8313 23.6475 23.3376 23.7602Z" fill="white"/>
<path d="M17.9725 18.9422C15.0438 19.3216 15.3855 23.2411 12.1276 22.322C12.0546 22.3871 11.9444 22.6776 11.9956 23.1316C11.8698 23.0602 11.3589 22.8681 11.1679 21.9441C10.9397 22.5426 10.8294 23.2253 11.5158 23.8555C11.2968 23.8841 10.3915 23.692 10.112 22.7712C10.112 22.7712 9.96137 22.9728 9.79677 23.1078C9.63838 22.8411 9.5359 22.3315 9.64615 22.0283C9.79211 22.0711 10.126 21.9727 10.126 21.9727C8.87594 21.4917 8.91786 20.663 8.88525 20.1026C10.0623 20.7345 10.6617 20.8234 10.6617 20.8234C10.6617 20.8234 10.5111 20.5455 10.3558 20.2249C11.7332 20.7948 13.0034 21.0424 14.6137 19.7708C16.6603 18.2167 17.9927 16.0624 18.1262 15.6338C18.1262 15.6338 17.6417 15.7735 17.3032 15.7592C17.5097 15.2591 17.6231 15.1131 17.7147 14.4543C17.7147 14.4543 17.929 14.8004 17.9616 14.9782C18.002 14.8067 18.1216 14.4178 18.1262 14.0193C17.6324 13.9812 17.2069 14.1082 16.2333 14.7908C16.2644 14.5892 16.3203 14.3908 16.3979 14.2019C15.4383 14.9734 15.7193 15.6401 14.0655 15.7021C13.7099 15.7243 11.8636 15.6878 11.1027 14.7829C12.2891 14.3686 15.1634 13.3732 15.7814 11.3539C15.9119 12.0476 15.7752 12.9525 15.3699 13.8225C15.7954 13.3875 16.3995 12.8969 16.5641 12.0968C17.0718 12.6302 17.2023 12.862 18.4446 13.1351C18.4539 13.1224 18.1977 12.8684 18.061 12.6445C18.5408 12.581 19.2753 12.5667 19.7753 12.308C19.7474 12.9176 20.0424 13.5907 20.2831 13.8225C20.2831 13.8225 20.0362 12.6937 20.4477 11.9571C20.4959 12.7922 20.749 13.578 21.3127 13.9066L21.4151 13.4018C21.6822 14.0336 22.218 14.4686 22.218 14.4686C20.9151 14.4971 19.6589 15.0163 19.3499 16.172C23.8298 15.5893 24.5162 13.9907 24.8656 11.7333C25.0504 13.0589 25.2367 15.2734 23.4944 16.1799C23.8997 16.2148 24.2724 16.0545 24.8795 15.8576C23.4245 17.8849 22.4649 16.0545 21.5596 17.6817C22.2739 18.0674 22.4649 18.2564 22.4649 18.2564C22.4649 18.2564 21.4912 18.25 21.0797 18.5786C21.0456 18.9231 21.69 19.6518 22.4928 20.29C19.6325 20.3376 19.8514 19.4184 17.9725 18.9422Z" fill="white"/>
<path d="M28.0616 13.4256C27.1609 13.4685 26.7976 13.4733 26.1671 13.0351C25.9963 12.9049 25.9202 12.5874 25.8348 12.235C25.7696 11.8604 25.8922 11.5556 25.7634 11.3158C25.6112 11.0476 25.4 10.8174 25.1484 10.6443C25.3627 10.5888 25.9947 10.457 26.3923 10.8126C26.6236 11.019 26.8038 11.3111 26.8364 11.8461C26.9047 12.9621 27.1019 12.7986 28.0616 13.4256Z" fill="white"/>
<path d="M7.96652 41.2278C8.8563 43.2868 10.0039 44.7807 10.6731 45.5728C9.45259 44.7838 8.31902 43.8615 7.29569 42.8201C6.50374 42.0136 4.89189 40.2372 3.76608 37.9417C3.49899 37.3988 3.26607 36.84 3.0673 36.2669C2.07038 33.4094 2.05485 30.6503 2.23187 28.7373C2.29088 28.1007 2.37163 27.5578 2.44306 27.1355C1.38712 28.0007 0.567224 29.1294 0.0641022 30.4121C-0.328767 26.8006 1.16662 23.4763 3.4229 19.906C4.38567 18.3836 4.6248 17.4581 4.90587 16.5596C5.56893 14.4561 5.59688 12.5829 5.51458 11.3256C5.59999 11.7526 5.6854 12.1796 5.7708 12.6067C6.46492 16.0738 5.29408 17.2644 5.22265 21.1538C5.1683 24.0558 5.6885 26.1576 5.97423 27.1466C6.16367 27.7975 6.35312 28.3278 6.49287 28.6881C6.60313 27.7832 6.72891 26.999 7.19787 26.3338C7.19787 26.3338 7.29414 28.3849 8.57834 29.9375C9.13116 28.8675 10.8828 27.7166 11.4045 27.4165C9.83149 29.9137 8.48673 33.0172 9.07991 37.313C7.4634 35.4128 7.2724 33.3744 7.12333 31.7028C6.81276 32.9744 6.67145 34.2841 6.70406 35.5954C6.75531 37.602 7.21339 39.3752 7.82056 40.8722C7.86714 40.996 7.91683 41.1135 7.96652 41.2278Z" fill="white"/>
<path d="M21.8896 27.5862C21.9657 26.2495 21.2825 25.1732 20.8818 24.5461C22.0651 24.6938 22.6723 25.5209 22.9782 26.1876C22.9782 26.1876 22.3508 27.3084 21.8896 27.5862Z" fill="white"/>
<path d="M23.7998 28.8911C23.7952 28.9625 23.7967 29.0324 23.8045 29.1038C23.834 29.2943 24.2796 29.8261 24.2936 30.069C24.3231 30.3722 23.1538 31.6851 22.7718 31.7931C22.7672 30.6342 22.9954 30.2262 22.3091 28.2275C23.5141 27.3655 24.7144 25.824 25.3915 23.7206C25.4986 25.7637 24.8852 27.4449 23.7998 28.8911Z" fill="white"/>
<path d="M25.6006 34.9043C25.0959 35.4678 24.5617 36.0028 23.9996 36.5077C24.1549 35.0408 24.0958 33.6184 23.6797 32.2674C24.1828 31.8626 24.6347 31.3975 25.026 30.8799C26.009 29.5798 26.3785 28.251 26.5338 27.443C26.5136 28.0304 26.4919 28.6177 26.4717 29.2051C26.2605 30.6037 25.7248 31.9309 24.9064 33.0723C25.1658 33.4819 25.4825 34.0994 25.6006 34.9043Z" fill="white"/>
<path d="M48.4226 22.649C47.7269 21.0488 46.2191 18.1897 43.2112 15.7878C41.7547 14.6274 40.1273 13.7129 38.3881 13.0795C39.1707 16.3196 38.1505 20.0503 35.3119 25.1065H35.3135C35.9548 24.7064 36.6644 24.435 37.4051 24.3064C34.8756 26.7495 34.3352 29.3658 34.419 33.8584C33.9159 33.2996 33.1892 31.5533 33.1892 31.5533C33.0354 32.2264 32.9687 32.9154 32.9935 33.606C33.0743 35.811 34.0588 36.6984 34.2731 38.6177C34.4206 39.9338 34.1147 40.9196 33.7187 42.1944C32.8615 44.9551 31.2326 46.8124 30.1611 47.8285C31.7901 44.1756 32.1752 40.0719 31.2559 36.1682C30.8599 34.8188 30.2496 32.3598 30.7264 29.3451C31.0851 27.0782 31.8801 24.9255 32.8212 23.2062C32.9392 23.0411 33.051 25.0001 33.2063 25.0017C33.6799 23.8619 35.4299 18.9136 33.947 14.286C33.2264 12.7906 32.405 10.4586 32.6721 7.68201C32.714 7.23751 32.7839 6.79777 32.8771 6.36121C33.7684 7.18512 35.1861 8.26304 37.1412 8.80914C38.6334 9.22507 39.208 8.98853 40.4456 9.3092C43.1165 10.0029 44.7392 12.227 45.702 13.559C48.2859 17.1388 48.4459 21.0615 48.4226 22.649Z" fill="white"/>
<path d="M31.3087 6.75963C31.231 7.12634 31.1534 7.49305 31.0757 7.86136C30.9049 7.00252 30.6937 5.32928 31.2543 3.3703C31.5789 2.24158 32.1099 1.18589 32.818 0.258789C33.5665 3.0782 34.5122 5.38485 37.9859 7.0295C36.7001 6.99299 33.8056 6.61358 32.9097 3.92434C32.1658 4.72603 31.5323 5.65155 31.3087 6.75963Z" fill="white"/>
<path d="M30.9115 22.9143C30.2158 24.4939 29.1226 25.4114 28.5574 25.8242C29.1832 23.8033 29.2065 21.6363 28.6257 19.6012C28.4999 19.9615 28.4378 20.4632 28.09 21.1093C27.753 19.009 26.9549 17.5311 25.7437 16.1023C26.5325 16.0817 27.3213 16.1166 28.1055 16.2055L26.5216 14.7863C27.1474 14.9371 28.1925 15.2752 29.236 16.0975C29.8571 16.5865 31.0233 17.5072 31.4302 19.1424C31.8448 20.7981 31.233 22.184 30.9115 22.9143Z" fill="white"/>
<path d="M15.7973 23.5951C15.187 24.1634 14.496 23.9237 14.35 23.7666C14.2522 23.6618 14.2382 23.538 14.0923 23.3268C14.0084 23.2046 13.8578 23.0744 13.541 22.9395C15.1839 22.5791 14.6699 23.6904 15.7973 23.5951Z" fill="white"/>
<path d="M24.7432 23.0582C24.3255 22.3185 23.7618 21.9565 23.3239 21.9438C23.2649 22.1057 23.1749 22.4883 23.0009 22.7915C22.4279 22.736 22.1779 22.6233 21.7866 22.3216C22.0304 21.8644 23.136 20.5849 23.4404 20.4008C24.1796 21.1008 24.7619 21.8962 24.7432 23.0582Z" fill="white"/>
<path d="M3.96436 8.1995C3.87429 8.72338 3.81373 9.25361 3.78578 9.78384C3.70503 11.2777 3.87895 12.7366 3.81528 12.7414H3.81373C2.95345 11.6571 0.630401 8.11378 1.41148 2.85278C4.99234 6.03732 8.77041 9.19805 13.7876 10.9602C12.1696 10.957 10.5577 10.7475 8.99091 10.3347C7.22533 9.86797 5.53273 9.14883 3.96436 8.1995Z" fill="white"/>
<path d="M20.3503 21.3453C19.1453 20.2467 18.3766 19.98 16.6731 20.5976C16.8704 19.7038 17.8533 19.3212 18.594 19.3069C17.4185 19.0736 17.1763 19.2688 16.3626 19.6435C14.2818 20.134 14.3641 22.32 12.1187 21.3643C12.0659 21.4215 11.8686 21.5485 11.6621 21.6263C11.5658 21.4389 11.4602 21.0675 11.3515 20.9151C11.2164 20.9786 10.9307 21.2627 10.5472 21.458C10.3189 21.5437 9.30335 21.3723 9.11079 20.4467C9.56422 20.6357 10.277 20.7658 10.7025 20.8357C10.5239 20.5722 10.4354 20.4991 10.4416 20.2467C12.1295 21.0008 13.2879 20.8071 14.5985 19.7832C14.2321 19.9133 13.5069 20.0245 13.0892 19.9372C14.965 19.1101 15.9293 17.7845 16.2446 17.005C14.9138 18.4751 13.5053 16.9209 12.1839 17.3971C12.5069 17.4495 13.069 17.4495 13.291 17.8274C13.1591 17.9829 12.9572 18.0321 12.8159 18.1083C11.7087 18.3465 10.4509 17.0939 8.38872 18.0337C7.98032 17.7083 7.9974 17.5003 8.00517 17.4543C8.93377 17.4114 9.09526 16.8177 9.08439 16.7812C8.86078 17.0336 8.12474 17.1606 7.8592 16.8558C7.80796 16.7955 7.8592 16.2573 7.8592 16.2573C8.1884 15.6303 11.5503 16.197 11.7056 16.4161C11.746 16.4383 11.1528 16.2002 11.1574 16.0509C11.1714 15.9065 11.1994 15.7239 11.35 15.5461C11.5829 15.5382 12.3423 15.5842 12.6808 15.5747C12.6451 15.4572 12.5208 15.3143 12.5441 15.0984C13.1202 15.0651 13.833 14.6317 14.6016 14.4539C14.5644 14.6968 14.3113 14.9619 14.4262 15.1318C14.5426 15.1143 14.7662 15.1318 15.316 15.0397C15.0737 15.3556 14.6296 15.589 14.0644 15.708C14.2942 15.9033 14.8982 15.9398 15.274 15.9541C15.2321 16.1684 15.1063 16.3288 15.0955 16.4875C15.8501 15.6699 16.5629 16.2859 17.7167 16.0382C18.3657 15.154 18.6841 14.2428 19.4046 14.2428C19.2027 14.5333 18.9558 15.7906 19.1297 16.5018C20.7695 13.7808 23.9047 17.0273 24.8007 11.6964C24.8473 11.8821 24.8846 12.5029 24.9187 12.6315L24.7541 12.6172C24.3566 16.4812 20.7199 15.6938 20.1686 16.5097C20.1251 16.4827 20.1888 16.2462 20.136 16.3161C19.3968 18.2004 16.9961 16.6669 16.3672 18.5417C16.8455 18.3338 17.6343 18.6799 18.5987 18.6354C19.6096 18.2988 19.8503 18.3052 20.5382 18.056C20.2649 18.6449 20.1375 18.6433 19.7881 19.0291C20.2369 19.4038 20.7152 19.7403 21.2152 20.0388C20.914 20.0626 20.6189 20.0737 20.2633 19.9641C20.3472 20.3166 20.4279 20.842 20.3503 21.3453Z" fill="white"/>
<path d="M22.6097 9.5029C22.5663 9.5029 21.237 9.42511 21.2572 9.63625C20.9948 9.58704 20.9094 9.20603 21.1827 8.93457C21.9187 9.02982 22.3551 9.23302 22.6097 9.5029Z" fill="white"/>
<path d="M48.7166 25.3018C48.653 27.5465 48.2337 31.8248 45.7786 36.4143C42.8608 41.869 38.693 44.7233 36.769 45.8742C37.0563 44.3915 37.4368 42.7786 37.9445 41.0689C38.4026 39.5226 38.9042 38.1018 39.4135 36.8144C39.3281 37.5875 39.3933 38.3701 39.6092 39.1162C39.7474 39.5909 39.9446 40.0449 40.1962 40.4672C41.749 38.8591 43.1435 37.0985 44.3578 35.211C46.7461 31.4994 48.0132 27.9465 48.7166 25.3018Z" fill="white"/>
<path d="M23.7786 42.2819C22.6575 42.0263 21.6031 41.5246 20.6885 40.8134C20.7211 40.634 20.7521 40.4515 20.7832 40.2689C20.8546 39.845 20.9198 39.4291 20.9789 39.0179C21.1807 39.4355 21.5332 39.7561 21.9618 39.9117C22.086 39.7418 22.2242 39.5688 22.378 39.3942C22.8547 38.8592 23.4091 38.402 24.0209 38.0369C24.3252 39.4466 24.2398 40.9166 23.7786 42.2819Z" fill="white"/>
<path d="M25.5775 40.9135C25.0029 41.4024 24.402 41.8597 23.7793 42.2819C24.1271 40.85 24.256 39.4324 24.0215 38.0353C24.3414 37.9258 24.652 37.7861 24.9455 37.6147C25.5526 37.2591 26.0837 36.7828 26.5092 36.2129C26.6381 37.1051 26.7049 38.5767 26.0232 40.0912C25.8943 40.3769 25.7452 40.6516 25.5775 40.9135Z" fill="white"/>
<path d="M22.2053 48.9571C20.8621 48.8983 19.5515 48.511 18.3838 47.8268C19.5018 46.706 20.1665 45.1963 20.2441 43.5977C20.5453 43.858 20.8746 44.085 21.2239 44.2739C22.1168 44.7565 22.96 44.8851 23.5066 44.9185C23.4445 46.3599 22.9942 47.7585 22.2053 48.9571Z" fill="white"/>
<path d="M23.8424 48.8776C23.302 48.9697 22.7523 48.9967 22.2041 48.957C22.8998 47.6648 23.3812 46.3281 23.5054 44.9168C24.538 44.8104 25.5241 44.4278 26.3657 43.8087C26.535 44.4294 26.6903 45.3883 26.4372 46.4741C26.2974 47.0742 26.1266 47.7997 25.507 48.3014C25.052 48.6712 24.5536 48.7554 23.8424 48.8776Z" fill="white"/>
</g>
<defs>
<clipPath id="clip0_3248_3898">
<rect width="48.7158" height="48.7158" fill="white" transform="translate(0 0.258789)"/>
</clipPath>
</defs>
</svg>
